<?xml version="1.0" encoding="UTF-8" standalone="no"?>
<!-- Created with Inkscape (http://www.inkscape.org/) -->
<svg xmlns:dc="http://purl.org/dc/elements/1.1/" xmlns:cc="http://creativecommons.org/ns#" xmlns:rdf="http://www.w3.org/1999/02/22-rdf-syntax-ns#" xmlns:svg="http://www.w3.org/2000/svg" xmlns="http://www.w3.org/2000/svg" xmlns:sodipodi="http://sodipodi.sourceforge.net/DTD/sodipodi-0.dtd" xmlns:inkscape="http://www.inkscape.org/namespaces/inkscape" version="1.1" width="210" height="47" id="svg4006" inkscape:version="0.48.4 r9939" sodipodi:docname="logo2014_basic.svg">
  <sodipodi:namedview pagecolor="#ffffff" bordercolor="#666666" borderopacity="1" objecttolerance="10" gridtolerance="10" guidetolerance="10" inkscape:pageopacity="0" inkscape:pageshadow="2" inkscape:window-width="1680" inkscape:window-height="1027" id="namedview3137" showgrid="false" inkscape:zoom="3.3706667" inkscape:cx="52.736657" inkscape:cy="-0.25854296" inkscape:window-x="-8" inkscape:window-y="-8" inkscape:window-maximized="1" inkscape:current-layer="svg4006"/>
  <defs id="defs4008"/>
  <metadata id="metadata4011">
    <rdf:RDF>
      <cc:Work rdf:about="">
        <dc:format>image/svg+xml</dc:format>
        <dc:type rdf:resource="http://purl.org/dc/dcmitype/StillImage"/>
        <dc:title/>
      </cc:Work>
    </rdf:RDF>
  </metadata>
  <path d="M 25.347434,46.99986 0,46.99986 0,0.01930419 l 25.347434,0 0,46.98055581 z" id="path2995" style="fill:#0081c0;fill-opacity:1;fill-rule:nonzero;stroke:none" inkscape:connector-curvature="0"/>
  <g transform="matrix(0.70070861,0,0,-0.69814921,37.885073,12.208152)" id="g2997">
    <path d="m 0,0 0,-31.941 -17.893,-17.893 0,67.293 L 0,0 z" id="path2999" style="fill:#cfdd3b;fill-opacity:1;fill-rule:nonzero;stroke:none" inkscape:connector-curvature="0"/>
  </g>
  <g transform="matrix(0.70070861,0,0,-0.69814921,37.885073,34.508016)" id="g3001">
    <path d="m 0,0 -17.893,-17.893 -17.503,0 0,17.893 L 0,0 z" id="path3003" style="fill:#7ac24f;fill-opacity:1;fill-rule:nonzero;stroke:none" inkscape:connector-curvature="0"/>
  </g>
  <g transform="matrix(0.70070861,0,0,-0.69814921,185.38837,14.811271)" id="g3041">
    <path d="m 0,0 c 0,-1.078 0.78,-1.895 1.858,-1.895 1.078,0 1.858,0.817 1.858,1.895 l 0,15.531 c 0,1.077 -0.78,1.895 -1.858,1.895 C 0.78,17.426 0,16.608 0,15.531 L 0,0 z m -3.789,15.531 c 0,3.53 2.638,5.684 5.647,5.684 3.01,0 5.648,-2.154 5.648,-5.684 L 7.506,0 c 0,-3.53 -2.638,-5.685 -5.648,-5.685 -3.009,0 -5.647,2.155 -5.647,5.685 l 0,15.531 z" id="path3043" style="fill:#495365;fill-opacity:1;fill-rule:nonzero;stroke:none" inkscape:connector-curvature="0"/>
  </g>
  <g transform="matrix(0.70070861,0,0,-0.69814921,56.026841,29.948264)" id="g3013">
    <path d="m 0,0 3.256,0 c 3.949,0 5.473,1.939 5.473,6.165 l 0,23.763 c 0,3.879 -1.317,6.096 -5.473,6.096 L 0,36.024 0,0 z m -7.066,42.675 10.461,0 c 7.966,0 12.4,-4.78 12.4,-12.747 l 0,-23.07 C 15.795,-2.286 11.084,-6.65 2.771,-6.65 l -9.837,0 0,49.325 z" id="path3015" style="fill:#495365;fill-opacity:1;fill-rule:nonzero;stroke:none" inkscape:connector-curvature="0"/>
  </g>
  <g transform="matrix(0.70070861,0,0,-0.69814921,71.064751,0.15488519)" id="g3017">
    <path d="m 0,0 21.059,0 0,-6.651 -13.995,0 0,-14.479 10.639,0 0,-6.65 -10.639,0 0,-14.479 13.995,0 0,-7.066 L 0,-49.325 0,0 z" id="path3019" style="fill:#495365;fill-opacity:1;fill-rule:nonzero;stroke:none" inkscape:connector-curvature="0"/>
  </g>
  <g transform="matrix(0.70070861,0,0,-0.69814921,99.741811,34.591235)" id="g3021">
    <path d="m 0,0 -6.234,0 -10.045,49.325 7.48,0 5.611,-34.431 0.139,0 5.682,34.431 7.482,0 L 0,0 z" id="path3023" style="fill:#495365;fill-opacity:1;fill-rule:nonzero;stroke:none" inkscape:connector-curvature="0"/>
  </g>
  <g transform="matrix(0.70070861,0,0,-0.69814921,114.94795,29.948264)" id="g3025">
    <path d="M 0,0 3.256,0 C 7.205,0 8.73,1.939 8.73,6.165 l 0,23.763 c 0,3.879 -1.316,6.096 -5.474,6.096 L 0,36.024 0,0 z m -7.064,42.675 10.46,0 c 7.967,0 12.401,-4.78 12.401,-12.747 l 0,-23.07 C 15.797,-2.286 11.084,-6.65 2.771,-6.65 l -9.835,0 0,49.325 z" id="path3027" style="fill:#495365;fill-opacity:1;fill-rule:nonzero;stroke:none" inkscape:connector-curvature="0"/>
  </g>
  <g transform="matrix(0.70070861,0,0,-0.69814921,137.92356,10.07007)" id="g3029">
    <path d="m 0,0 -0.139,0 -3.465,-17.874 7.067,0 L 0,0 z m -2.98,14.202 5.888,0 11.016,-49.325 -7.067,0 -2.078,10.599 -9.631,0 -2.078,-10.599 -7.064,0 11.014,49.325 z" id="path3031" style="fill:#495365;fill-opacity:1;fill-rule:nonzero;stroke:none" inkscape:connector-curvature="0"/>
  </g>
  <g transform="matrix(0.70070861,0,0,-0.69814921,152.65898,20.033358)" id="g3033">
    <path d="m 0,0 -9.697,28.473 7.48,0 5.68,-19.605 0.141,0 5.679,19.605 7.481,0 L 7.066,0 l 0,-20.852 -7.066,0 L 0,0 z" id="path3035" style="fill:#495365;fill-opacity:1;fill-rule:nonzero;stroke:none" inkscape:connector-curvature="0"/>
  </g>
  <g transform="matrix(0.70070861,0,0,-0.69814921,172.77905,16.134264)" id="g3037">
    <path d="m 0,0 6.836,12.893 c 0.669,1.3 0.669,2.044 0.669,3.492 0,1.338 0,2.936 -1.858,2.936 -1.115,0 -1.858,-0.669 -1.858,-1.895 l 0,-2.155 -3.789,0 0,2.081 c 0,3.158 2.526,5.758 5.685,5.758 3.938,0 5.61,-3.121 5.61,-6.65 0,-2.564 -0.074,-3.233 -1.264,-5.499 L 4.458,0.223 l 6.837,0 0,-3.79 L 0,-3.567 0,0 z" id="path3039" style="fill:#495365;fill-opacity:1;fill-rule:nonzero;stroke:none" inkscape:connector-curvature="0"/>
  </g>
  <g transform="matrix(0.70070861,0,0,-0.69814921,195.57941,2.9566972)" id="g3045">
    <path d="m 0,0 -3.79,-2.787 0,4.013 3.79,2.787 3.79,0 0,-26.455 -3.79,0 L 0,0 z" id="path3047" style="fill:#495365;fill-opacity:1;fill-rule:nonzero;stroke:none" inkscape:connector-curvature="0"/>
  </g>
  <g style="font-size:37.44112396px;font-style:normal;font-variant:normal;font-weight:normal;font-stretch:normal;line-height:125%;letter-spacing:0px;word-spacing:0px;fill:#495365;fill-opacity:1;stroke:none;font-family:Bebas;-inkscape-font-specification:Bebas" id="text3101" transform="matrix(0.56056691,0,0,0.5538895,-0.112113,-0.20442204)">
    <path d="m 357.69642,21.762098 8.88153,-21.11319229 5.02521,0 0,21.11319229 3.2176,0 0,5.052632 -3.2176,0 0,7.180177 -5.02521,0 0,-7.180177 -8.88153,0 z m 8.88153,0 0,-10.39663 -4.14883,10.39663 z" id="path3191" inkscape:connector-curvature="0"/>
  </g>
</svg>